<svg width="141" height="120" viewBox="0 0 141 120" fill="none" xmlns="http://www.w3.org/2000/svg">
<path d="M140.369 102C140.369 111.941 132.31 120 122.369 120L69.0814 120C66.32 120 64.0814 117.761 64.0814 115L64.0814 54.6153C64.0814 49.0925 68.5586 44.6153 74.0814 44.6153L135.369 44.6153C138.13 44.6153 140.369 46.8539 140.369 49.6153L140.369 102Z" fill="#FFF1DA"/>
<path d="M35.8962 77.9344L33.0155 76.5439L15.9017 102.059H35.0009L36.8414 100.849V78.8077L35.8962 77.9344Z" fill="#407093"/>
<path d="M33.2758 76.6697L26.7988 73.543H25.5781L7.26343 100.849L8.35377 102.059H16.2465L33.2758 76.6697Z" fill="#365E7D"/>
<path d="M40.2797 100.849H15.0248C13.8775 100.849 12.9474 101.786 12.9474 102.943V105.598C12.9474 106.754 13.8773 107.692 15.0244 107.692H40.2797C41.427 107.692 42.3572 106.755 42.3572 105.598V102.943C42.3572 101.786 41.427 100.849 40.2797 100.849V100.849Z" fill="#4A80AA"/>
<path d="M13.3774 105.598V102.943C13.3774 101.786 14.3075 100.849 15.4548 100.849H2.07742C0.930137 100.849 0 101.786 0 102.943V105.598C0 106.755 0.930137 107.692 2.07742 107.692H15.4546C14.3073 107.692 13.3774 106.755 13.3774 105.598V105.598Z" fill="#407093"/>
<path d="M32.4064 61.5118C31.629 63.1288 31.1897 64.9419 31.1897 66.86C31.1897 72.1014 34.4447 76.5725 39.0259 78.3412C40.9927 77.7198 42.7404 76.599 44.1209 75.1232V72.445L32.4064 61.5118Z" fill="#4A80AA"/>
<path d="M31.3948 66.902C31.3948 65.0284 31.8245 63.2573 32.5852 61.6784L28.8407 58.1834H27.3213C25.0236 60.369 23.5872 63.4654 23.5872 66.9018C23.5872 73.522 28.9093 78.8885 35.4747 78.8885C36.8423 78.8885 38.1537 78.6518 39.3761 78.223C34.7302 76.5933 31.3948 72.1417 31.3948 66.902V66.902Z" fill="#407093"/>
<path d="M100.412 1.42261C98.5314 -0.474202 95.4815 -0.474202 93.6005 1.42261L89.0037 6.05778V6.64525L94.7411 12.6762L95.8156 12.9265L100.412 8.29134C102.294 6.39474 102.294 3.31942 100.412 1.42261V1.42261Z" fill="#FFD086"/>
<path d="M101.683 3.71527C101.483 2.87561 101.062 2.07822 100.412 1.42261C98.5314 -0.474202 95.4815 -0.474202 93.6005 1.42261L89.0037 6.05778V6.64525L92.0456 9.84278C93.8592 7.93987 95.6598 6.06199 96.5858 5.12831C98.1294 3.57203 100.384 3.56004 101.683 3.71527V3.71527Z" fill="#FFC365"/>
<path d="M84.6751 13.7696C84.6224 13.7696 84.569 13.7669 84.5154 13.7616L31.3943 8.48935C30.5084 8.40143 29.8611 7.60615 29.9483 6.71286C30.0355 5.81956 30.8246 5.16731 31.7101 5.2546L84.8312 10.5267C85.7169 10.6146 86.3644 11.4099 86.2772 12.3032C86.1952 13.1426 85.4941 13.7696 84.6751 13.7696Z" fill="#365E7D"/>
<path d="M46.7579 23.797C46.0431 23.797 45.3899 23.3137 45.2001 22.5838C44.9742 21.7155 45.4892 20.8271 46.3501 20.5993L84.265 10.5715C85.1259 10.3441 86.0072 10.863 86.2329 11.7313C86.4589 12.5994 85.944 13.4878 85.0829 13.7156L47.168 23.7434C47.0308 23.7796 46.8931 23.797 46.7579 23.797V23.797Z" fill="#407093"/>
<path d="M94.9725 72.5169C94.153 72.5169 93.4519 71.8893 93.3703 71.0496L88.1741 17.4531C88.0876 16.56 88.7355 15.7649 89.6214 15.6774C90.5073 15.5941 91.2956 16.2436 91.3822 17.1369L96.5783 70.7335C96.6649 71.6266 96.017 72.4216 95.1311 72.5091C95.0779 72.5142 95.0249 72.5169 94.9725 72.5169Z" fill="#365E7D"/>
<path d="M79.6826 57.3038C79.5459 57.3038 79.407 57.286 79.2685 57.2491C78.408 57.019 77.8955 56.1293 78.1237 55.2617L88.215 16.8832C88.443 16.0153 89.3252 15.4994 90.1859 15.7286C91.0463 15.9587 91.5589 16.8484 91.3307 17.7161L81.2393 56.0946C81.0481 56.8228 80.3958 57.3038 79.6826 57.3038V57.3038Z" fill="#407093"/>
<path d="M84.3843 10.7143L88.9928 6.06732L95.8038 12.9351L91.1953 17.5821L84.3843 10.7143Z" fill="#FFC365"/>
<path d="M87.8844 14.2242C88.992 13.0547 90.7217 11.2307 92.3947 9.4769L89.0039 6.05768L84.3945 10.7053L87.8844 14.2242Z" fill="#FFA90F"/>
<path d="M92.2328 20.2336C91.8204 20.2336 91.4077 20.0748 91.0932 19.7576L82.2292 10.82C81.5997 10.1853 81.5997 9.1565 82.2292 8.5215C82.8586 7.88712 83.879 7.88712 84.5086 8.5215L93.3725 17.4591C94.0021 18.0939 94.0021 19.1226 93.3725 19.7576C93.0578 20.075 92.6454 20.2336 92.2328 20.2336Z" fill="#4A80AA"/>
<path d="M93.2731 75.4425L39.3062 20.5538C32.1513 36.841 30.9088 54.3252 36.2652 69.4023C51.0581 82.8575 73.1559 84.9236 93.4992 76.4655L93.2731 75.4425Z" fill="#B5DCFF"/>
<path d="M39.5934 20.8461L27.2288 8.27032L25.9897 8.39358C17.2783 29.697 19.8219 52.9103 34.586 67.7975C35.4803 68.6992 36.4056 69.5549 37.3583 70.3666C31.1346 55.3073 32.146 37.3964 39.5934 20.8461V20.8461Z" fill="#8BCAFF"/>
<path d="M98.2047 71.5411L43.4708 16.351C42.9322 16.4347 42.4136 16.6817 41.9989 17.0998L39.6182 19.5006C39.1069 20.0161 38.8526 20.6894 38.8453 21.3652L93.4057 76.38C94.2169 77.198 95.5322 77.198 96.3434 76.38L98.2049 74.5032C99.0159 73.6854 99.0159 72.3591 98.2047 71.5411Z" fill="#DBEDFF"/>
<path d="M39.7004 19.5416L42.0315 17.1911C42.4608 16.7583 43.0029 16.5105 43.5624 16.4434L30.8738 3.64908C30.0625 2.83108 28.7473 2.83108 27.9359 3.64908L26.0744 5.52612C25.2631 6.34412 25.2631 7.67028 26.0744 8.48828L38.9413 21.4624C38.9244 20.7692 39.1758 20.0706 39.7004 19.5416V19.5416Z" fill="#B5DCFF"/>
</svg>
