<svg width="120" height="120" viewBox="0 0 120 120" fill="none" xmlns="http://www.w3.org/2000/svg">
<path d="M23 53C23 62.9411 31.0589 71 41 71L65 71C67.7614 71 70 68.7614 70 66L70 29C70 23.4772 65.5228 19 60 19L28 19C25.2386 19 23 21.2386 23 24L23 53Z" fill="#FFF1DA"/>
<path d="M69.1595 67.968C68.1827 68.2061 67.2313 68.6472 66.3644 69.2634C64.1058 70.8297 62.7918 73.0654 63.4296 74.2566C64.0674 75.4479 66.4154 75.1432 68.6739 73.577C69.5525 72.9825 70.333 72.2227 70.9674 71.3447C71.2618 70.9204 71.3146 70.3918 71.1023 69.9966L70.2737 68.4491C70.0629 68.0527 69.6257 67.8642 69.1595 67.968Z" fill="#D5D6DB"/>
<path d="M63.4878 46.8427C62.7795 47.0155 62.0896 47.3354 61.4609 47.7824C59.8236 48.9178 58.8703 50.5389 59.3324 51.4019C59.7945 52.265 61.4976 52.0439 63.1347 50.9086C63.7718 50.4773 64.3377 49.9262 64.7978 49.2894C65.011 48.9819 65.0492 48.5989 64.8953 48.3124L64.2953 47.1919C64.1427 46.9045 63.8258 46.7675 63.4878 46.8427Z" fill="#D5D6DB"/>
<path d="M54.2731 47.7275C54.1155 47.7083 53.9473 47.7541 53.8015 47.8554L49.9556 50.5227C49.6339 50.7452 49.5052 51.1735 49.6684 51.4797C49.7057 51.5498 49.7568 51.6097 49.8188 51.6559L59.2978 58.7659L72.1219 49.8717L54.2731 47.7275Z" fill="#029BC5"/>
<path d="M94.8138 46.7221L59.9144 70.6327L39.267 79.5744L28.737 81.8524L27.5786 79.7102L85.7506 40.6211C87.4843 39.4512 89.4155 38.7331 91.349 38.5398C92.1958 38.46 93.032 38.4907 93.8382 38.6306C94.553 38.7485 95.2311 38.9761 95.8521 39.3064C96.5453 39.6807 97.8646 39.7238 98.2919 40.4695C98.2933 40.4683 99.3015 43.8918 94.8138 46.7221V46.7221Z" fill="#E1E6E9"/>
<path d="M60.377 67.4689L45.2792 93.6631C45.0906 94.031 45.2026 94.443 45.5289 94.5833C45.7292 94.6695 45.9744 94.6354 46.1804 94.493L50.0233 91.8398C50.7624 91.3293 51.4169 90.6808 51.9462 89.9345L81.2256 52.4715L60.377 67.4689Z" fill="#029BC5"/>
<path d="M22.2792 66.5944C22.0273 66.5007 21.7276 66.5493 21.4746 66.7246L18.298 68.9265C17.8651 69.2262 17.6927 69.8026 17.9126 70.214C17.9545 70.2922 18.009 70.361 18.0742 70.4177L26.9744 78.1753L36.3321 71.8141L22.2792 66.5944Z" fill="#029BC5"/>
<path d="M29.9576 79.5737L25.1673 86.8751C25.097 86.98 25.1135 87.1118 25.2041 87.1692C25.2694 87.2105 25.3586 87.2031 25.4311 87.1502L28.3997 85.1029C28.4228 85.087 28.4437 85.0671 28.4609 85.0443L35.4604 75.7823L29.9576 79.5737Z" fill="#029BC5"/>
<path d="M93.2655 38.9454C92.4353 38.8003 91.574 38.7693 90.7019 38.8527C89.8527 40.1449 89.31 41.5964 89.1278 43.0626C89.1144 43.3571 89.3326 43.5691 89.6151 43.5361C89.703 43.5257 89.7903 43.4921 89.8689 43.4383L95.3397 39.6471C94.7001 39.3038 94.0017 39.0676 93.2655 38.9454Z" fill="#029BC5"/>
<path d="M81.3433 45.917L84.9151 43.462L88.2421 49.6204L84.6703 52.0754L81.3433 45.917Z" fill="#D5D6DB"/>
<path d="M79.0956 48.3526C78.6652 48.6494 78.4931 49.2197 78.7117 49.6265L79.0657 50.2854C79.2986 50.6818 79.8302 50.7515 80.2532 50.441C80.6558 50.1453 80.8179 49.6079 80.6239 49.2111L80.2699 48.5522C80.0515 48.1458 79.526 48.0564 79.0956 48.3526V48.3526Z" fill="#3A556A"/>
<path d="M75.8853 50.5225C75.4549 50.8192 75.2828 51.3896 75.5013 51.7963L75.8554 52.4553C76.0882 52.8516 76.6199 52.9213 77.0429 52.6109C77.4455 52.3152 77.6076 51.7778 77.4136 51.381L77.0595 50.722C76.841 50.3158 76.3155 50.2263 75.8853 50.5225V50.5225Z" fill="#3A556A"/>
<path d="M72.6739 52.6929C72.244 52.99 72.0726 53.5597 72.2909 53.966L72.6449 54.625C72.8778 55.0213 73.4094 55.091 73.8324 54.7806C74.235 54.4849 74.3971 53.9475 74.2031 53.5507L73.8491 52.8918C73.6306 52.4851 73.1045 52.396 72.6739 52.6929V52.6929Z" fill="#3A556A"/>
<path d="M69.4636 54.8627C69.0336 55.1598 68.8622 55.7295 69.0806 56.1359L69.4346 56.7948C69.6675 57.1912 70.1991 57.2609 70.6221 56.9504C71.0247 56.6547 71.1868 56.1173 70.9928 55.7205L70.6388 55.0616C70.4201 54.655 69.894 54.5659 69.4636 54.8627V54.8627Z" fill="#3A556A"/>
<path d="M66.2535 57.0325C65.8233 57.3298 65.6518 57.8997 65.8702 58.3063L66.2245 58.9655C66.4428 59.3719 66.9687 59.4609 67.399 59.1643C67.8293 58.8677 68.001 58.2978 67.7827 57.8914L67.4284 57.2322C67.2106 56.8254 66.685 56.7358 66.2544 57.0319C66.254 57.0322 66.2538 57.0323 66.2535 57.0325Z" fill="#3A556A"/>
<path d="M63.0431 59.2023C62.613 59.4996 62.4414 60.0695 62.6599 60.4761L63.0141 61.1353C63.2325 61.5417 63.7583 61.6307 64.1886 61.3341C64.6189 61.0375 64.7907 60.4676 64.5723 60.0612L64.2181 59.402C64.0003 58.9952 63.4746 58.9056 63.0441 59.2017C63.0437 59.202 63.0433 59.2022 63.0431 59.2023Z" fill="#3A556A"/>
<path d="M59.8327 61.3721C59.4025 61.6694 59.231 62.2393 59.4494 62.6459L59.8037 63.3051C60.0226 63.7111 60.5487 63.7992 60.9785 63.5022C61.4076 63.2057 61.579 62.637 61.3617 62.2311L61.0074 61.5719C60.7892 61.1652 60.2633 61.0758 59.8327 61.3721Z" fill="#3A556A"/>
<path d="M56.6221 63.542C56.1919 63.8392 56.0204 64.4092 56.2389 64.8157L56.5931 65.475C56.812 65.881 57.3381 65.9691 57.7679 65.6721C58.197 65.3756 58.3685 64.8069 58.1511 64.401L57.7969 63.7418C57.5786 63.3351 57.0528 63.2456 56.6221 63.542Z" fill="#3A556A"/>
<path d="M53.4119 65.7117C52.9817 66.0089 52.8102 66.5788 53.0287 66.9854L53.3829 67.6446C53.6018 68.0506 54.1279 68.1387 54.5577 67.8417C54.9868 67.5452 55.1583 66.9766 54.9409 66.5707L54.5867 65.9114C54.3682 65.5049 53.8424 65.4154 53.4119 65.7117Z" fill="#3A556A"/>
<path d="M50.2005 67.8821C49.7702 68.1787 49.5984 68.7486 49.8168 69.155L49.8172 69.1558L50.1715 69.815C50.3904 70.2211 50.9165 70.3092 51.3463 70.0122C51.7754 69.7157 51.9468 69.147 51.7295 68.7411L51.3752 68.0818C51.157 67.6752 50.6311 67.5857 50.2005 67.8821Z" fill="#3A556A"/>
<path d="M46.9909 70.0513C46.5606 70.3479 46.3888 70.9178 46.6072 71.3241L46.6076 71.325L46.9619 71.9842C47.1808 72.3902 47.7069 72.4783 48.1367 72.1813C48.5658 71.8848 48.7373 71.3162 48.5199 70.9103L48.1657 70.251C47.9472 69.8445 47.4214 69.755 46.9909 70.0513Z" fill="#3A556A"/>
</svg>
