<svg width="140" height="120" viewBox="0 0 140 120" fill="none" xmlns="http://www.w3.org/2000/svg">
<path d="M49.0908 102C49.0908 111.941 57.1497 120 67.0908 120L135 120C137.761 120 140 117.761 140 115L140 40.9091C140 35.3863 135.523 30.9091 130 30.9091L54.0908 30.9091C51.3294 30.9091 49.0908 33.1477 49.0908 35.9091L49.0908 102Z" fill="#FFF1DA"/>
<path d="M90.909 50.6331V40.276C90.909 38.2457 89.2632 36.5998 87.2328 36.5998H83.2716C81.6877 36.5998 80.2824 35.585 79.7845 34.0814C79.2299 32.4064 78.556 30.7858 77.7731 29.2296C77.0601 27.8121 77.333 26.0986 78.4549 24.9766L81.2575 22.174C82.6932 20.7382 82.6932 18.4106 81.2575 16.9749L73.9339 9.65136C72.4982 8.21566 70.1706 8.21566 68.7349 9.65136L65.9323 12.454C64.8103 13.576 63.0967 13.8487 61.6793 13.1357C60.123 12.3528 58.5024 11.679 56.8275 11.1244C55.3239 10.6265 54.3091 9.22114 54.3091 7.63728V3.67624C54.3091 1.64588 52.6632 0 50.6328 0H40.2758C38.2454 0 36.5995 1.64588 36.5995 3.67624V7.63746C36.5995 9.22133 35.5847 10.6267 34.0812 11.1246C32.4062 11.6792 30.7856 12.353 29.2293 13.1359C27.8119 13.8489 26.0984 13.576 24.9764 12.4542L22.1737 9.65155C20.738 8.21584 18.4104 8.21584 16.9747 9.65155L9.65149 16.9751C8.21579 18.4108 8.21579 20.7384 9.65149 22.1741L12.4541 24.9768C13.5759 26.0988 13.8489 27.8123 13.1359 29.2297C12.353 30.786 11.6791 32.4066 11.1245 34.0816C10.7726 35.1441 9.96757 35.9625 8.96665 36.3512C8.55125 36.5125 8.28493 36.7827 7.82032 36.7827H3.8591C1.82874 36.7827 0.182861 38.4286 0.182861 40.4589V50.4502C0.182861 52.4805 1.82874 54.1264 3.8591 54.1264H7.82032C9.40419 54.1264 10.8095 55.3241 11.3074 56.8277C11.862 58.5027 12.5359 60.1231 13.3188 61.6795C14.0318 63.0969 13.7589 64.8105 12.637 65.9325L10.0173 68.7351C8.58162 70.1708 8.58162 72.4984 10.0173 73.9341L16.9751 80.8919C18.4108 82.3276 20.7384 82.3276 22.1741 80.8919L24.9767 78.0893C26.0985 76.9673 27.8123 76.6945 29.2297 77.4075C30.7859 78.1904 32.7724 79.0472 34.4474 79.6018C35.9509 80.0997 36.9657 81.505 36.9657 83.0889V87.0501C36.9657 89.0805 38.6116 90.7264 40.642 90.7264H50.4503C52.4806 90.7264 54.1265 89.0805 54.1265 87.0501V83.0889C54.1265 82.6243 54.3967 82.358 54.558 81.9426C54.9467 80.9417 55.7653 80.1366 56.8276 79.7847C58.5026 79.2301 60.1232 78.5562 61.6795 77.7734C63.0969 77.0604 64.8104 77.3333 65.9324 78.4551L68.7351 81.2577C70.1708 82.6934 72.4984 82.6934 73.9341 81.2577L81.2577 73.9341C82.6934 72.4984 82.6934 70.1708 81.2577 68.7351L78.455 65.9325C77.3332 64.8105 77.0603 63.0969 77.7733 61.6795C78.5562 60.1233 79.2301 58.5027 79.7847 56.8277C80.2826 55.3241 81.6879 54.3093 83.2718 54.3093H87.233C89.2632 54.3093 90.909 52.6634 90.909 50.6331V50.6331Z" fill="#B6C4CF"/>
<path d="M54.5583 81.9425C54.3973 82.3577 54.3095 82.8077 54.3095 83.2723V87.2324C54.3095 89.2628 52.6633 90.909 50.6329 90.909H40.2762C38.2458 90.909 36.5996 89.2628 36.5996 87.2324V83.2723C36.5996 81.6883 35.5844 80.2816 34.0808 79.7841C32.4072 79.2299 30.7865 78.5567 29.2299 77.7739C27.8123 77.0605 26.0984 77.333 24.9771 78.4543L22.1749 81.2566C20.739 82.6925 18.4105 82.6925 16.9746 81.2566L9.65063 73.9345C8.21657 72.4986 8.21657 70.17 9.65063 68.7342L12.4547 65.9319C13.576 64.8106 13.8485 63.0967 13.1352 61.6791C12.3523 60.1225 11.6792 58.5019 11.1249 56.8282C10.6274 55.3246 9.22078 54.3094 7.63673 54.3094H3.67661C1.64624 54.3094 0 52.6632 0 50.6328V40.2761C0 38.2458 1.64624 36.5995 3.67661 36.5995H7.63673C8.10134 36.5995 8.55131 36.5117 8.96653 36.3508C8.96287 36.5794 8.96104 36.8099 8.96104 37.0404C8.96104 61.8419 29.0671 81.948 53.8687 81.948C54.0991 81.948 54.3296 81.9462 54.5583 81.9425V81.9425Z" fill="#9FACBA"/>
<path d="M45.4545 75.6356C62.1231 75.6356 75.6356 62.1231 75.6356 45.4545C75.6356 28.786 62.1231 15.2734 45.4545 15.2734C28.786 15.2734 15.2734 28.786 15.2734 45.4545C15.2734 62.1231 28.786 75.6356 45.4545 75.6356Z" fill="#9FACBA"/>
<path d="M45.4543 69.2336C58.5871 69.2336 69.2334 58.5873 69.2334 45.4545C69.2334 32.3217 58.5871 21.6755 45.4543 21.6755C32.3215 21.6755 21.6753 32.3217 21.6753 45.4545C21.6753 58.5873 32.3215 69.2336 45.4543 69.2336Z" fill="#F8F7F7"/>
</svg>
